HIERARCHY
ROOT RootJoint
{
    OFFSET   0.000000   0.000000   0.000000
    CHANNELS 6 Xposition Yposition Zposition Xrotation Yrotation Zrotation
    JOINT pelvis_lowerback
    {
        OFFSET   0.000000   0.093605   0.000000
        CHANNELS 3 Xrotation Yrotation Zrotation
        JOINT lowerback_torso
        {
            OFFSET   0.000000   0.100000   0.000000
            CHANNELS 3 Xrotation Yrotation Zrotation
            JOINT torso_head
            {
                OFFSET   0.000000   0.282350   0.000000
                CHANNELS 3 Xrotation Yrotation Zrotation
                End Site
                {
                    OFFSET   0.000000   0.192650   0.000000
                }
            }
            JOINT rTorso_Clavicle
            {
                OFFSET  -0.001000   0.157500   0.000000
                CHANNELS 3 Xrotation Yrotation Zrotation
                JOINT rShoulder
                {
                    OFFSET  -0.117647   0.000000   0.000000
                    CHANNELS 3 Xrotation Yrotation Zrotation
                    JOINT rElbow
                    {
                        OFFSET  -0.245000   0.000000   0.000000
                        CHANNELS 3 Xrotation Yrotation Zrotation
                        JOINT rWrist
                        {
                            OFFSET  -0.240000   0.000000   0.000000
                            CHANNELS 3 Xrotation Yrotation Zrotation
                            End Site
                            {
                                OFFSET  -0.116353  -0.002500   0.000000
                            }
                        }
                    }
                }
            }
            JOINT lTorso_Clavicle
            {
                OFFSET   0.001000   0.157500   0.000000
                CHANNELS 3 Xrotation Yrotation Zrotation
                JOINT lShoulder
                {
                    OFFSET   0.117647   0.000000   0.000000
                    CHANNELS 3 Xrotation Yrotation Zrotation
                    JOINT lElbow
                    {
                        OFFSET   0.245000   0.000000   0.000000
                        CHANNELS 3 Xrotation Yrotation Zrotation
                        JOINT lWrist
                        {
                            OFFSET   0.240000   0.000000   0.000000
                            CHANNELS 3 Xrotation Yrotation Zrotation
                            End Site
                            {
                                OFFSET   0.116353  -0.002500   0.000000
                            }
                        }
                    }
                }
            }
        }
    }
    JOINT rHip
    {
        OFFSET  -0.100000  -0.051395   0.000000
        CHANNELS 3 Xrotation Yrotation Zrotation
        JOINT rKnee
        {
            OFFSET   0.000000  -0.410000   0.000000
            CHANNELS 3 Xrotation Yrotation Zrotation
            JOINT rAnkle
            {
                OFFSET   0.000000  -0.390000   0.000000
                CHANNELS 3 Xrotation Yrotation Zrotation
                JOINT rToeJoint
                {
                    OFFSET   0.000000  -0.050000   0.130000
                    CHANNELS 3 Xrotation Yrotation Zrotation
                    End Site
                    {
                        OFFSET  -0.010000   0.002000   0.060000
                    }
                }
            }
        }
    }
    JOINT lHip
    {
        OFFSET   0.100000  -0.051395   0.000000
        CHANNELS 3 Xrotation Yrotation Zrotation
        JOINT lKnee
        {
            OFFSET   0.000000  -0.410000   0.000000
            CHANNELS 3 Xrotation Yrotation Zrotation
            JOINT lAnkle
            {
                OFFSET   0.000000  -0.390000   0.000000
                CHANNELS 3 Xrotation Yrotation Zrotation
                JOINT lToeJoint
                {
                    OFFSET   0.000000  -0.050000   0.130000
                    CHANNELS 3 Xrotation Yrotation Zrotation
                    End Site
                    {
                        OFFSET   0.010000   0.002000   0.060000
                    }
                }
            }
        }
    }
}
MOTION
Frames: 11
Frame Time:   0.008333
 -2.622427   0.885770   5.566306  -2.139305  24.413513   1.621881   5.740602   2.152957  -1.172973   4.032665   4.311083  -1.697674   0.348224  -3.431237   2.742602   0.989645   3.375040   9.180377   9.832573  15.905759  49.966784  -0.073174  75.216862   0.036147   4.623726   3.834443  -3.183146   4.543604   5.886848  -8.639741  10.284644  -7.648468 -45.882334   0.061080 -88.328839   0.049996   2.223950  -1.170214   1.890830 -12.308512  -4.228556  -7.866376  56.165733   0.005202  -0.001303   1.634720  -1.699578   8.677451 -37.931744   0.018528  -0.008928 -13.652389   0.451261  -5.127668  33.237077  -0.000409   0.000555 -17.146899  -3.897689   4.305150  -3.015758   0.000067  -0.002286
 -2.621768   0.884653   5.568022  -2.242282  24.525864   2.003629   5.655387   1.984827  -1.390514   4.248028   4.104719  -1.898588   0.566982  -3.384380   2.758504   1.128065   3.307432   9.307877  10.496212  16.098114  50.171089  -0.087577  73.098374   0.049461   4.726317   4.301869  -3.375591   4.323360   5.332667  -9.107617   9.118767  -8.927690 -45.968339   0.403149 -89.134917   0.392055   2.134076  -0.546853   1.783582 -13.613942  -3.883754  -8.211177  58.675917   0.006251   0.002955   2.200406  -1.745065   8.465280 -34.796064   0.024062  -0.004421 -13.526727   0.435305  -5.532794  33.361954  -0.000270   0.000433 -16.882077  -4.167583   4.598829  -2.637636  -0.000611  -0.002840
 -2.621392   0.884158   5.569618  -2.343245  24.829749   2.364606   5.629835   1.708121  -1.604170   4.465484   3.777836  -2.090803   0.777740  -3.326297   2.765524   1.357695   3.221493   9.431061  11.215195  16.236716  50.344892  -0.096513  71.036046   0.057426   4.811787   4.353444  -3.347673   3.954116   4.647357  -9.555483   7.888706 -10.257844 -46.092092  13.697674 -89.956661  13.686552   2.058775  -0.274464   1.640882 -15.018131  -3.553828  -8.454695  61.101539   0.008681   0.009969   2.733963  -1.786171   8.269159 -31.911251   0.026230   0.003603 -13.321917   0.405385  -5.869853  33.334218  -0.000235   0.000299 -16.992726  -4.379288   4.791741  -2.211483  -0.001180  -0.002289
 -2.621146   0.884034   5.571246  -2.461303  25.185695   2.688202   5.640322   1.359447  -1.790804   4.688860   3.368826  -2.267864   0.980811  -3.268805   2.767187   1.627630   3.110867   9.537978  11.936145  16.343884  50.503903  -0.095737  69.089232   0.055829   4.885930   4.225200  -3.205310   3.526232   3.927186  -9.975266   6.666326 -11.559243 -46.243849 178.938062 -89.241056 178.927113   1.995084  -0.240345   1.498786 -16.466095  -3.230545  -8.605050  63.366623   0.010926   0.016266   3.231033  -1.824487   8.086765 -29.273409   0.026787   0.011103 -13.043069   0.336177  -6.150984  33.168663  -0.000294  -0.000103 -17.028909  -4.627961   4.986898  -1.858195  -0.001565  -0.001840
 -2.620956   0.884126   5.572988  -2.604264  25.530818   2.981520   5.673700   0.964020  -1.957458   4.915148   2.912710  -2.427387   1.175597  -3.214750   2.766567   1.915004   2.979386   9.627097  12.640076  16.425867  50.648018  -0.088380  67.262526   0.047914   4.953835   4.025857  -3.026215   3.081270   3.214465 -10.361786   5.482229 -12.801550 -46.413047 179.350027 -88.475859 179.339437   1.938960  -0.333371   1.360957 -17.930809  -2.917638  -8.689882  65.463315   0.012349   0.020658   3.693216  -1.860759   7.916824 -26.859898   0.026411   0.016588 -12.701854   0.248689  -6.380316  32.933223  -0.000357  -0.000559 -17.040061  -4.868622   5.178518  -1.535259  -0.001841  -0.001475
 -2.620776   0.884338   5.574887  -2.773697  25.843667   3.252661   5.720149   0.539550  -2.109241   5.140706   2.431556  -2.571575   1.361339  -3.164866   2.764767   2.208760   2.831246   9.698277  13.319413  16.486081  50.776788  -0.077720  65.551639   0.037042   5.017282   3.793935  -2.846776   2.639371   2.528310 -10.715706   4.349455 -13.973446 -46.593760 179.495511 -87.751471 179.485376   1.887919  -0.491251   1.226513 -19.391997  -2.618239  -8.730887  67.398795   0.012923   0.023144   4.122797  -1.895330   7.758417 -24.651162   0.025415   0.019982 -12.308420   0.155082  -6.565272  32.665638  -0.000388  -0.000950 -17.050774  -5.088555   5.360077  -1.239424  -0.002008  -0.001179
 -2.620583   0.884611   5.576962  -2.967672  26.120898   3.507672   5.772321   0.099250  -2.249588   5.361972   1.939821  -2.703456   1.537458  -3.119179   2.762353   2.502752   2.670606   9.752618  13.970886  16.527638  50.890823  -0.066052  63.950390   0.025558   5.076951   3.544485  -2.681698   2.210892   1.876938 -11.040651   3.273152 -15.072270 -46.782891 179.578874 -87.069151 179.569209   1.840447  -0.681413   1.093599 -20.834010  -2.333484  -8.742740  69.184318   0.012840   0.024116   4.522096  -1.928359   7.610746 -22.629821   0.024013   0.021692 -11.872576   0.060000  -6.713281  32.387649  -0.000381  -0.001235 -17.073472  -5.285974   5.527886  -0.968356  -0.002082  -0.000939
 -2.620896   0.886093   5.578601  -2.897797  26.357293   3.569498   5.730842  -0.177809  -2.419640   5.489563   1.521173  -2.715664   1.771374  -3.031762   2.777069   2.762693   2.509899   9.669401  15.079716  16.737160  50.830780  -0.069043  62.442041   0.033203   5.074767   3.389404  -2.696054   1.936501   1.029010 -11.124921   1.980675 -16.582371 -47.049192 179.586331 -86.071326 179.577611   1.704406  -0.256313   0.990061 -22.784327  -2.189456  -8.609361  71.185409   0.009520   0.025317   4.372033  -1.952966   7.543102 -20.531908   0.017597   0.022539 -11.475568   0.007194  -6.702333  31.580345  -0.000181  -0.002804 -16.706649  -5.527296   5.333942  -0.531109  -0.001261  -0.000736
 -2.621471   0.888341   5.580162  -2.792539  26.623523   3.496477   5.715277  -0.478485  -2.507168   5.595329   1.080152  -2.669781   1.997728  -2.940532   2.789702   3.043990   2.355298   9.534035  16.160013  16.922378  50.750626  -0.068662  61.029135   0.036943   5.084192   3.219132  -2.535689   1.582087   0.151316 -11.138053   0.673197 -18.070591 -47.332928 179.602955 -85.068712 179.595588   1.580300  -0.132781   0.811143 -24.813184  -2.139566  -8.320833  73.108288   0.006404   0.027061   4.225444  -1.971856   7.483319 -18.661488   0.011804   0.023871 -10.984645  -0.104197  -6.559154  30.474525   0.000214  -0.004876 -16.187267  -5.780375   5.204101  -0.552904  -0.001013  -0.000589
 -2.622184   0.891004   5.581768  -2.679618  26.900272   3.331877   5.710356  -0.810124  -2.539348   5.689218   0.619128  -2.582797   2.215767  -2.853877   2.803617   3.325287   2.192814   9.371524  17.188909  17.080135  50.660392  -0.064804  59.710191   0.036431   5.095785   3.044173  -2.333435   1.194828  -0.704581 -11.107765  -0.612413 -19.484941 -47.623287 179.627066 -84.103042 179.621036   1.468738  -0.199141   0.651110 -26.837126  -2.138603  -7.944057  74.918752   0.004293   0.028575   4.086898  -1.987190   7.429034 -16.961961   0.007528   0.025262 -10.434048  -0.257810  -6.321904  29.220375   0.000792  -0.006807 -15.575901  -6.022749   5.130534  -0.595824  -0.000794  -0.000472
 -2.622950   0.893888   5.583489  -2.580137  27.156678   3.116515   5.712558  -1.155034  -2.541903   5.777303   0.155138  -2.474234   2.424019  -2.772975   2.818651   3.600481   2.023249   9.194759  18.163182  17.212883  50.564217  -0.058833  58.478801   0.033185   5.107378   2.869129  -2.138529   0.803258  -1.519227 -11.051979  -1.855150 -20.812119 -47.918522 179.655269 -83.186092 179.650280   1.366235  -0.360907   0.520294 -28.810097  -2.162155  -7.533900  76.613697   0.003002   0.029228   3.956258  -2.000280   7.379045 -15.413540   0.004648   0.026020  -9.857401  -0.442712  -6.024054  27.934824   0.001574  -0.007964 -14.877048  -6.258534   5.110732  -0.748763  -0.000504  -0.000320
